<?xml version="1.0" encoding="UTF-8" standalone="no"?>
<!-- Created with Inkscape (http://www.inkscape.org/) -->

<svg
   xmlns:dc="http://purl.org/dc/elements/1.1/"
   xmlns:cc="http://creativecommons.org/ns#"
   xmlns:rdf="http://www.w3.org/1999/02/22-rdf-syntax-ns#"
   xmlns:svg="http://www.w3.org/2000/svg"
   xmlns="http://www.w3.org/2000/svg"
   xmlns:sodipodi="http://sodipodi.sourceforge.net/DTD/sodipodi-0.dtd"
   xmlns:inkscape="http://www.inkscape.org/namespaces/inkscape"
   width="156.94133mm"
   height="28.190212mm"
   viewBox="0 0 156.94133 28.190212"
   version="1.1"
   id="svg8"
   inkscape:version="0.92.4 (5da689c313, 2019-01-14)"
   sodipodi:docname="Timebank-logo-w.svg"
   inkscape:export-filename="D:\Bootcamp\Projekt Timebank\Logo\logo.png"
   inkscape:export-xdpi="299"
   inkscape:export-ydpi="299">
  <defs
     id="defs2" />
  <sodipodi:namedview
     id="base"
     pagecolor="#ffffff"
     bordercolor="#666666"
     borderopacity="1.0"
     inkscape:pageopacity="0.0"
     inkscape:pageshadow="2"
     inkscape:zoom="3.959798"
     inkscape:cx="332.96756"
     inkscape:cy="56.254645"
     inkscape:document-units="mm"
     inkscape:current-layer="layer1"
     showgrid="false"
     inkscape:window-width="3440"
     inkscape:window-height="1369"
     inkscape:window-x="2552"
     inkscape:window-y="-8"
     inkscape:window-maximized="1"
     showguides="true"
     inkscape:guide-bbox="true" />
  <metadata
     id="metadata5">
    <rdf:RDF>
      <cc:Work
         rdf:about="">
        <dc:format>image/svg+xml</dc:format>
        <dc:type
           rdf:resource="http://purl.org/dc/dcmitype/StillImage" />
        <dc:title></dc:title>
      </cc:Work>
    </rdf:RDF>
  </metadata>
  <g
     inkscape:label="Layer 1"
     inkscape:groupmode="layer"
     id="layer1"
     transform="translate(-25.700114,-41.707931)">
    <g
       aria-label="TimeBank"
       style="font-style:normal;font-variant:normal;font-weight:normal;font-stretch:normal;font-size:35.27777863px;line-height:1.25;font-family:Roboto;-inkscape-font-specification:'Roboto, Normal';font-variant-ligatures:normal;font-variant-caps:normal;font-variant-numeric:normal;text-align:start;letter-spacing:0px;word-spacing:0px;writing-mode:lr-tb;text-anchor:start;fill:#ffffff;fill-opacity:1;stroke:none;stroke-width:0.26458332"
       id="text12">
      <path
         d="M 45.096002,47.194964 H 37.034479 V 69.553635 H 33.744412 V 47.194964 h -8.044298 v -2.721625 h 19.395888 z"
         style="font-size:35.27777863px;fill:#ffffff;stroke-width:0.26458332"
         id="path14"
         inkscape:connector-curvature="0" />
      <path
         d="M 51.813938,69.553635 H 48.627225 V 50.915668 h 3.186713 z m -3.445095,-23.58168 q 0,-0.775146 0.465087,-1.309136 0.482314,-0.53399 1.41249,-0.53399 0.930175,0 1.412489,0.53399 0.482313,0.53399 0.482313,1.309136 0,0.775147 -0.482313,1.291911 -0.482314,0.516765 -1.412489,0.516765 -0.930176,0 -1.41249,-0.516765 -0.465087,-0.516764 -0.465087,-1.291911 z"
         style="font-size:35.27777863px;fill:#ffffff;stroke-width:0.26458332"
         id="path16"
         inkscape:connector-curvature="0" />
      <path
         d="m 59.892687,50.915668 0.08613,2.067057 q 2.049832,-2.411567 5.529379,-2.411567 3.910183,0 5.322672,2.997233 0.930176,-1.343587 2.411567,-2.17041 1.498617,-0.826823 3.531223,-0.826823 6.13227,0 6.235623,6.494005 V 69.553635 H 79.822565 V 57.254643 q 0,-1.998155 -0.912951,-2.980007 -0.91295,-0.999078 -3.066135,-0.999078 -1.774224,0 -2.945556,1.06798 -1.171333,1.050754 -1.360813,2.842204 V 69.553635 H 68.333171 V 57.340771 q 0,-4.065213 -3.979085,-4.065213 -3.135037,0 -4.289144,2.669949 V 69.553635 H 56.878228 V 50.915668 Z"
         style="font-size:35.27777863px;fill:#ffffff;stroke-width:0.26458332"
         id="path18"
         inkscape:connector-curvature="0" />
      <path
         d="m 95.566653,69.898144 q -3.789605,0 -6.166721,-2.480469 -2.377116,-2.497694 -2.377116,-6.66626 v -0.585666 q 0,-2.773302 1.050755,-4.943712 1.067979,-2.187636 2.962782,-3.410645 1.912028,-1.240234 4.134114,-1.240234 3.634576,0 5.649953,2.394341 2.01539,2.394342 2.01539,6.855741 v 1.326361 H 90.20953 q 0.0689,2.756077 1.601969,4.461399 1.550293,1.688097 3.927409,1.688097 1.688097,0 2.859429,-0.689019 1.171333,-0.689019 2.049833,-1.825901 l 1.94648,1.515842 q -2.34267,3.600125 -7.027997,3.600125 z M 95.170467,53.189431 q -1.929253,0 -3.238389,1.412489 -1.309137,1.395264 -1.619195,3.927409 h 9.336209 V 58.288172 Q 99.511288,55.85938 98.339955,54.533018 97.168623,53.189431 95.170467,53.189431 Z"
         style="font-size:35.27777863px;fill:#ffffff;stroke-width:0.26458332"
         id="path20"
         inkscape:connector-curvature="0" />
      <path
         style="font-size:35.27777863px;fill:#ffffff;stroke-width:0.99999994"
         d="m 424.64648,157.63672 c -2.60082,0.006 -5.30291,0.0709 -8.10937,0.19922 -5.11219,0.23378 -11.10823,0.0406 -15.63281,2.43164 -1.21229,0.64065 -2.39235,1.70955 -2.79102,3.02148 -3.31177,10.89887 4.21452,27.674 3.25842,45.73971 0.31601,17.35034 -3.90331,37.79871 -3.9823,55.15196 l 40.16587,-8.3e-4 c 10.06935,0.046 22.87595,0.46637 28.38809,-4.39474 5.51218,-4.86111 6.48401,-15.86484 5.59114,-24.37178 -0.57989,-5.52521 -1.03379,-9.761 -4.02858,-13.75406 -2.95139,-4.03646 -5.78567,-7.66273 -10.90719,-9.09502 6.4809,-4.58113 10.48057,-12.93803 12.61835,-19.84164 6.83446,-19.9139 2.4838,-26.15419 -3.70536,-28.57227 -9.41154,-3.73289 -22.65944,-6.55475 -40.86524,-6.51367 z m 11.47072,7.94447 c 7.10579,0.81001 21.78457,3.57686 24.82274,5.96401 4.3009,2.65942 1.39503,13.8017 -0.83712,19.45646 -1.72109,4.36011 -4.2411,7.89654 -6.91472,11.07735 -5.13019,4.34151 -7.6545,4.95467 -15.2054,5.76841 l -1.10136,0.11869 -0.0446,6.71316 1.69493,-0.0635 c 12.41321,0 20.5547,7.28778 22.8943,18.46038 1.07142,5.11657 2.01025,15.08681 -1.37519,18.125 -3.16343,3.70908 -17.65851,-20.71514 -26.59936,-20.74953 -10.15256,-0.0391 -20.99429,23.18413 -25.45337,20.77883 -5.12618,-2.76512 0.0383,-24.04042 7.0105,-30.05666 4.89161,-4.22092 9.1312,-6.78424 14.9755,-6.60059 l 0.0446,-6.69639 c 0,0 -4.10878,-0.26785 -6.2971,-0.9375 -4.8753,-1.49189 -10.9553,-5.34332 -13.44811,-11.68347 -3.63764,-9.27324 -5.40138,-23.12853 -2.01644,-26.74389 4.25978,-4.54976 20.39073,-3.27168 27.8502,-2.93079 z"
         transform="scale(0.26458333)"
         id="path22"
         inkscape:connector-curvature="0"
         sodipodi:nodetypes="scsccccccccccsccccscccccscsccscscc" />
      <path
         d="m 139.99116,69.553635 q -0.27561,-0.551216 -0.44787,-1.963705 -2.22208,2.308214 -5.30544,2.308214 -2.75608,0 -4.5303,-1.550293 -1.757,-1.567518 -1.757,-3.96186 0,-2.911105 2.20486,-4.513075 2.22208,-1.619195 6.23562,-1.619195 h 3.10059 v -1.464165 q 0,-1.670872 -0.99908,-2.652724 -0.99908,-0.999078 -2.94556,-0.999078 -1.70532,0 -2.85943,0.861274 -1.1541,0.861274 -1.1541,2.084283 h -3.20394 q 0,-1.395264 0.98185,-2.687175 0.99908,-1.309136 2.68717,-2.067057 1.70533,-0.757921 3.73793,-0.757921 3.22117,0 5.04707,1.619195 1.8259,1.601969 1.8948,4.426948 v 8.578288 q 0,2.566596 0.65457,4.082438 v 0.275608 z m -5.28823,-2.428793 q 1.49862,0 2.84221,-0.775146 1.34358,-0.775147 1.94648,-2.015381 v -3.824056 h -2.4977 q -5.85666,0 -5.85666,3.42787 0,1.498616 0.99908,2.342665 0.99908,0.844048 2.56659,0.844048 z"
         style="font-size:35.27777863px;fill:#ffffff;stroke-width:0.26458332"
         id="path24"
         inkscape:connector-curvature="0" />
      <path
         d="m 150.72263,50.915668 0.10335,2.342665 q 2.13596,-2.687175 5.58106,-2.687175 5.90833,0 5.96001,6.66626 v 12.316217 h -3.18671 V 57.220193 q -0.0172,-2.015381 -0.93018,-2.980008 -0.89572,-0.964627 -2.80775,-0.964627 -1.55029,0 -2.72163,0.826823 -1.17133,0.826823 -1.8259,2.17041 v 13.280844 h -3.18671 V 50.915668 Z"
         style="font-size:35.27777863px;fill:#ffffff;stroke-width:0.26458332"
         id="path26"
         inkscape:connector-curvature="0" />
      <path
         d="m 172.40952,60.92367 -1.99816,2.084283 v 6.545682 h -3.18671 V 43.095301 h 3.18671 V 59.09777 l 1.70532,-2.049832 5.80499,-6.13227 h 3.87573 l -7.25192,7.785916 8.09597,10.852051 h -3.73793 z"
         style="font-size:35.27777863px;fill:#ffffff;stroke-width:0.26458332"
         id="path28"
         inkscape:connector-curvature="0" />
    </g>
  </g>
</svg>
